# xmcd CD database file
#
# Track frame offsets:
#	150
#	14595
#	26575
#	40010
#	54232
#	65102
#	75165
#	87482
#	100832
#	114625
#	129260
#	142792
#	156767
#	170802
#	184552
#	198012
#	212057
#	224647
#	239460
#	248707
#
# Disc length: 3499 seconds
#
# Revision: 0
# Processed by: cddbd v1.5.1PL0 Copyright (c) Steve Scherf et al.
# Submitted via: CDex 1.51
#
DISCID=0e0da914
DTITLE=Josephine Baker - Dis Moi Josephine
DYEAR=1991
DGENRE=Jazz
TTITLE0=J'ai deux amours
TTITLE1=La petite tonkinoise
TTITLE2=Voulez-vous de la canne a sucre?
TTITLE3=Dis moi Josephine?
TTITLE4=You're driving me crazy
TTITLE5=My fate is in your hands
TTITLE6=Si j'etais blanche
TTITLE7=Sans amour
TTITLE8=Madiana
TTITLE9=Haiti
TTITLE10=C'est lui
TTITLE11=Vous faites partie de moi
TTITLE12=C'est un nid charmant
TTITLE13=I'm feelin' like a million
TTITLE14=A message from the man in the moon
TTITLE15=Afraid to dream
TTITLE16=The loveliness of you
TTITLE17=De temps en temps
TTITLE18=Brazil
TTITLE19=Piel canela
EXTD=YEAR: 1991
EXTT0=
EXTT1=
EXTT2=
EXTT3=
EXTT4=
EXTT5=
EXTT6=
EXTT7=
EXTT8=
EXTT9=
EXTT10=
EXTT11=
EXTT12=
EXTT13=
EXTT14=
EXTT15=
EXTT16=
EXTT17=
EXTT18=
EXTT19=
PLAYORDER=
